<svg xmlns="http://www.w3.org/2000/svg" viewBox="0 0 800 600">
  <defs>
    <linearGradient id="weddingGrad" x1="0%" y1="0%" x2="100%" y2="100%">
      <stop offset="0%" style="stop-color:#d4af37;stop-opacity:0.9" />
      <stop offset="100%" style="stop-color:#8b6914;stop-opacity:0.9" />
    </linearGradient>
  </defs>
  <rect width="800" height="600" fill="url(#weddingGrad)"/>
  <circle cx="100" cy="100" r="40" fill="#ffffff" opacity="0.3"/>
  <circle cx="700" cy="500" r="60" fill="#ffffff" opacity="0.2"/>
  <circle cx="400" cy="300" r="80" fill="#ffffff" opacity="0.15"/>
  <path d="M 250 400 Q 400 200 550 400" stroke="#ffffff" stroke-width="8" fill="none" opacity="0.8"/>
  <g opacity="0.8">
    <circle cx="250" cy="380" r="15" fill="#ff69b4"/>
    <circle cx="270" cy="370" r="12" fill="#ff1493"/>
    <circle cx="280" cy="390" r="10" fill="#ff69b4"/>
    <circle cx="550" cy="380" r="15" fill="#ff69b4"/>
    <circle cx="530" cy="370" r="12" fill="#ff1493"/>
    <circle cx="520" cy="390" r="10" fill="#ff69b4"/>
  </g>
  <ellipse cx="350" cy="450" rx="25" ry="45" fill="#ffffff" opacity="0.7"/>
  <ellipse cx="450" cy="450" rx="25" ry="45" fill="#ffffff" opacity="0.7"/>
  <rect x="200" y="350" width="20" height="60" fill="#ffdd99" opacity="0.7"/>
  <polygon points="210,350 200,340 220,340" fill="#ffaa00" opacity="0.8"/>
  <rect x="580" y="350" width="20" height="60" fill="#ffdd99" opacity="0.7"/>
  <polygon points="590,350 580,340 600,340" fill="#ffaa00" opacity="0.8"/>
  <text x="400" y="550" font-size="32" font-weight="bold" fill="#ffffff" text-anchor="middle" opacity="0.9">LUXURY WEDDINGS</text>
</svg>